<?xml version="1.0" encoding="iso-8859-1"?>
<!-- Generator: Adobe Illustrator 19.0.0, SVG Export Plug-In . SVG Version: 6.00 Build 0)  -->
<svg version="1.1" id="Capa_1" xmlns="http://www.w3.org/2000/svg" xmlns:xlink="http://www.w3.org/1999/xlink" x="0px" y="0px"
	 viewBox="0 0 294.843 294.843" style="enable-background:new 0 0 294.843 294.843;" xml:space="preserve">
<g>
	<path d="M288.843,265.421c-3.313,0-6,2.687-6,6v11.421H12v-39.992h276.842c3.313,0,6-2.687,6-6s-2.687-6-6-6H6
		c-3.313,0-6,2.687-6,6v51.992c0,3.313,2.687,6,6,6h282.842c3.313,0,6-2.687,6-6v-17.421
		C294.843,268.108,292.156,265.421,288.843,265.421z"/>
	<path d="M143.179,203.465c1.125,1.125,2.651,1.757,4.243,1.757c1.591,0,3.117-0.632,4.242-1.757l76.367-76.368
		c2.344-2.343,2.344-6.142,0-8.485c-2.342-2.343-6.143-2.343-8.484,0l-72.125,72.125l-72.125-72.125
		c-2.343-2.343-6.143-2.343-8.485,0c-2.343,2.343-2.343,6.142,0,8.485L143.179,203.465z"/>
	<path d="M147.422,171.421c3.313,0,6-2.687,6-6V6c0-3.313-2.687-6-6-6s-6,2.687-6,6v159.421
		C141.422,168.735,144.108,171.421,147.422,171.421z"/>
</g>
<g>
</g>
<g>
</g>
<g>
</g>
<g>
</g>
<g>
</g>
<g>
</g>
<g>
</g>
<g>
</g>
<g>
</g>
<g>
</g>
<g>
</g>
<g>
</g>
<g>
</g>
<g>
</g>
<g>
</g>
</svg>
