<?xml version="1.0" encoding="iso-8859-1"?>
<!-- Generator: Adobe Illustrator 19.0.0, SVG Export Plug-In . SVG Version: 6.00 Build 0)  -->
<svg version="1.1" id="Layer_1" xmlns="http://www.w3.org/2000/svg" xmlns:xlink="http://www.w3.org/1999/xlink" x="0px" y="0px"
	 viewBox="0 0 512 512" style="enable-background:new 0 0 512 512;" xml:space="preserve">
<g>
	<g>
		<path d="M467.786,352.977c-11.423,0-20.682,9.259-20.682,20.682v70.595c0,14.547-11.835,26.381-26.381,26.381H91.278
			c-14.547,0-26.381-11.835-26.381-26.381v-70.595c0-11.423-9.26-20.682-20.682-20.682c-11.422,0-20.682,9.259-20.682,20.682v70.595
			c0,37.355,30.391,67.746,67.746,67.746h329.445c37.356,0,67.746-30.391,67.746-67.746v-70.595
			C488.468,362.236,479.209,352.977,467.786,352.977z"/>
	</g>
</g>
<g>
	<g>
		<path d="M364.752,241.375c-8.077-8.077-21.172-8.077-29.249,0L256,320.878l-79.502-79.503c-8.077-8.076-21.173-8.077-29.249,0
			c-8.077,8.077-8.077,21.172,0,29.249l94.127,94.127c3.879,3.879,9.14,6.058,14.625,6.058c5.486,0,10.746-2.179,14.625-6.058
			l94.127-94.127C372.828,262.548,372.828,249.452,364.752,241.375z"/>
	</g>
</g>
<g>
	<g>
		<path d="M256,0c-11.423,0-20.682,9.26-20.682,20.682v329.445c0,11.423,9.26,20.682,20.682,20.682
			c11.423,0,20.682-9.259,20.682-20.682V20.682C276.682,9.26,267.423,0,256,0z"/>
	</g>
</g>
<g>
</g>
<g>
</g>
<g>
</g>
<g>
</g>
<g>
</g>
<g>
</g>
<g>
</g>
<g>
</g>
<g>
</g>
<g>
</g>
<g>
</g>
<g>
</g>
<g>
</g>
<g>
</g>
<g>
</g>
</svg>
